<svg xmlns="http://www.w3.org/2000/svg" width="800" height="450" viewBox="0 0 800 450">
  <rect width="800" height="450" fill="#1a1a2e"/>
  <rect x="0" y="0" width="800" height="50" fill="#16213e"/>
  <text x="20" y="32" fill="#e94560" font-family="Arial" font-size="18" font-weight="bold">Customer Issue Dashboard</text>
  <rect x="20" y="70" width="500" height="360" rx="8" fill="#16213e"/>
  <text x="40" y="100" fill="#e94560" font-family="Arial" font-size="11">Ticket #a1b2c3d4</text>
  <text x="40" y="125" fill="#ffffff" font-family="Arial" font-size="16" font-weight="bold">Login page not loading on Chrome</text>
  <rect x="40" y="135" width="50" height="20" rx="4" fill="#ffa500"/>
  <text x="52" y="150" fill="#ffffff" font-family="Arial" font-size="10">Open</text>
  <rect x="100" y="135" width="30" height="20" rx="4" fill="#e94560"/>
  <text x="108" y="150" fill="#ffffff" font-family="Arial" font-size="10">P2</text>
  <rect x="140" y="135" width="60" height="20" rx="4" fill="#0f3460"/>
  <text x="150" y="150" fill="#a0a0b0" font-family="Arial" font-size="10">IT Dept</text>
  <text x="40" y="185" fill="#a0a0b0" font-family="Arial" font-size="12">Description</text>
  <text x="40" y="205" fill="#ffffff" font-family="Arial" font-size="11">Customer reports login page shows blank white screen on Chrome browser. Works fine on Firefox.</text>
  <text x="40" y="235" fill="#a0a0b0" font-family="Arial" font-size="12">Customer Information</text>
  <text x="40" y="255" fill="#ffffff" font-family="Arial" font-size="11">Name: John Doe</text>
  <text x="40" y="272" fill="#ffffff" font-family="Arial" font-size="11">Email: john@example.com</text>
  <text x="40" y="289" fill="#ffffff" font-family="Arial" font-size="11">Mobile: +91 98765 43210</text>
  <text x="40" y="306" fill="#ffffff" font-family="Arial" font-size="11">Enrol ID: ENR-2024-001</text>
  <rect x="540" y="70" width="240" height="180" rx="8" fill="#16213e"/>
  <text x="560" y="100" fill="#a0a0b0" font-family="Arial" font-size="12">Quick Actions</text>
  <rect x="560" y="110" width="200" height="30" rx="4" fill="#0f3460"/>
  <text x="575" y="130" fill="#ffffff" font-family="Arial" font-size="11">Update Status: In Progress</text>
  <rect x="560" y="150" width="200" height="30" rx="4" fill="#0f3460"/>
  <text x="575" y="170" fill="#ffffff" font-family="Arial" font-size="11">Assign: Agent A</text>
  <rect x="560" y="200" width="95" height="30" rx="4" fill="#e94560"/>
  <text x="585" y="220" fill="#ffffff" font-family="Arial" font-size="11">Edit Ticket</text>
  <rect x="560" y="240" width="240" height="180" rx="8" fill="#16213e"/>
  <text x="580" y="270" fill="#a0a0b0" font-family="Arial" font-size="12">Comments (2)</text>
  <text x="580" y="295" fill="#4ecdc4" font-family="Arial" font-size="11">Agent A - 2 hours ago</text>
  <text x="580" y="312" fill="#ffffff" font-family="Arial" font-size="10">Looking into this now...</text>
  <text x="580" y="340" fill="#4ecdc4" font-family="Arial" font-size="11">Admin - 1 hour ago</text>
  <text x="580" y="357" fill="#ffffff" font-family="Arial" font-size="10">Priority raised to P1</text>
  <text x="400" y="445" fill="#555577" font-family="Arial" font-size="11" font-style="italic" text-anchor="middle">Replace this with an actual screenshot of ticket detail</text>
</svg>